<?xml version="1.0" standalone="no"?>
<!DOCTYPE svg PUBLIC "-//W3C//DTD SVG 20010904//EN"
 "http://www.w3.org/TR/2001/REC-SVG-20010904/DTD/svg10.dtd">
<svg version="1.0" xmlns="http://www.w3.org/2000/svg"
 width="512.000000pt" height="512.000000pt" viewBox="0 0 512.000000 512.000000"
 preserveAspectRatio="xMidYMid meet">
<metadata>
Created by potrace 1.11, written by Peter Selinger 2001-2013
</metadata>
<g transform="translate(0.000000,512.000000) scale(0.100000,-0.100000)"
fill="#000000" stroke="none">
<path d="M0 2560 l0 -2560 2560 0 2560 0 0 2560 0 2560 -2560 0 -2560 0 0
-2560z m1769 2268 c136 -103 377 -367 526 -578 116 -164 308 -480 292 -480 -2
0 -32 48 -65 108 -216 383 -509 745 -770 950 -70 55 -55 55 17 0z m75 -139
c324 -310 610 -709 831 -1161 99 -204 260 -591 246 -596 -4 -1 -62 13 -127 32
-131 37 -350 86 -388 86 -16 0 -27 -7 -31 -20 -7 -22 -25 -27 -25 -7 0 21 -92
168 -195 312 -266 373 -578 673 -832 802 -51 26 -93 50 -93 55 0 33 52 243 69
279 30 63 53 82 149 123 147 63 225 127 238 196 8 40 15 35 158 -101z m1429
-348 c99 -73 135 -106 192 -174 31 -37 60 -65 65 -62 5 3 12 0 16 -6 4 -8 3
-9 -4 -5 -21 13 -13 -2 31 -61 43 -56 87 -123 75 -113 -3 3 -39 50 -80 105
-88 119 -197 231 -292 303 -38 29 -66 52 -62 52 4 0 30 -17 59 -39z m37 -73
c281 -241 509 -661 621 -1149 33 -142 69 -363 69 -424 0 -22 4 -35 8 -28 4 7
9 -58 10 -143 l3 -155 -58 44 c-76 58 -209 143 -303 195 -106 58 -109 61 -116
112 -3 25 -19 95 -34 155 -80 317 -253 642 -454 852 -81 86 -199 188 -252 219
-18 10 -16 15 26 60 64 70 126 120 194 156 76 42 152 110 167 153 15 41 17 40
119 -47z m415 -473 c24 -44 47 -89 50 -100 4 -11 -14 18 -40 65 -26 47 -56
101 -67 120 -12 22 -14 28 -3 15 9 -11 36 -56 60 -100z m-1028 -230 c52 -108
94 -197 92 -200 -2 -2 -48 86 -101 196 -53 109 -94 199 -92 199 3 0 48 -88
101 -195z m1122 30 c0 -5 -6 1 -14 15 -8 14 -14 30 -14 35 0 6 6 -1 14 -15 8
-14 14 -29 14 -35z m21 -50 c0 -5 -5 -3 -10 5 -5 8 -10 20 -10 25 0 6 5 3 10
-5 5 -8 10 -19 10 -25z m24 -65 c5 -17 4 -20 -2 -10 -5 8 -13 26 -16 40 -5 17
-4 20 2 10 5 -8 13 -26 16 -40z m54 -170 c0 -8 -6 1 -13 20 -7 19 -13 42 -13
50 0 8 6 -1 13 -20 7 -19 13 -42 13 -50z m-1099 -15 c0 -5 -6 1 -14 15 -8 14
-14 30 -14 35 0 6 6 -1 14 -15 8 -14 14 -29 14 -35z m1136 -124 c3 -20 -4 -4
-15 34 -11 39 -19 75 -19 80 1 16 28 -75 34 -114z m-1088 2 c-3 -2 -12 15 -22
39 -28 69 -27 78 0 19 14 -29 24 -55 22 -58z m57 -138 c42 -110 55 -157 28
-102 -13 27 -82 215 -82 224 0 16 13 -12 54 -122z m1061 11 c8 -43 15 -90 14
-104 0 -15 -7 5 -14 43 -7 39 -16 88 -20 110 -4 22 -5 37 -1 34 3 -3 13 -41
21 -83z m-1382 -52 c357 -82 765 -238 1052 -404 451 -259 661 -478 792 -825
82 -218 87 -493 13 -717 -79 -237 -284 -525 -462 -648 -61 -42 -60 -41 51 71
332 333 481 679 441 1021 -11 98 -48 237 -71 268 -9 12 -10 11 -4 -5 114 -317
68 -645 -132 -948 -130 -196 -432 -439 -686 -551 -31 -14 -57 -24 -57 -22 0 2
30 23 67 47 267 173 520 448 627 680 112 244 126 477 40 669 -14 32 -36 67
-47 77 -20 17 -20 17 -13 -2 37 -102 41 -323 7 -450 -65 -244 -232 -460 -489
-633 -107 -71 -268 -162 -288 -162 -4 0 14 14 41 32 56 37 165 136 162 147 -1
4 40 47 91 96 453 432 409 822 -131 1142 -120 72 -333 164 -508 221 -265 86
-800 206 -1303 290 -255 43 -249 38 -98 92 71 25 90 35 82 45 -14 17 17 30 35
15 10 -8 39 1 112 33 228 100 329 188 418 362 l50 96 50 -6 c28 -3 99 -17 158
-31z m-1667 -48 c263 -89 482 -196 717 -348 59 -39 107 -71 107 -73 0 -2 -59
-24 -130 -51 -72 -26 -127 -50 -123 -54 4 -4 49 -13 98 -20 291 -40 951 -172
1235 -246 476 -125 809 -283 1006 -479 100 -100 105 -108 88 -160 l-12 -40 5
41 c7 57 -13 66 -27 12 -100 -382 -267 -732 -445 -936 -71 -79 -91 -81 -32 -3
187 251 345 670 376 996 8 94 4 125 -18 125 -4 0 -14 -38 -24 -85 -60 -294
-192 -622 -342 -850 -48 -74 -123 -173 -113 -150 2 6 27 57 55 115 60 121 79
178 39 115 -29 -45 -32 -40 -12 25 28 96 25 102 -13 22 -22 -45 -42 -82 -44
-82 -3 0 17 51 43 114 110 259 181 540 215 853 l7 62 -101 51 c-87 43 -242
110 -256 110 -2 0 -2 -15 0 -32 4 -30 4 -30 -6 5 -17 59 -28 43 -13 -20 34
-145 56 -346 64 -603 5 -146 7 -267 4 -269 -2 -2 -4 20 -5 50 -1 34 -8 -1 -19
-99 -19 -165 -60 -415 -67 -408 -2 2 11 104 29 227 31 210 33 240 32 489 0
268 -11 397 -50 595 -16 82 -41 132 -31 65 2 -19 15 -109 28 -200 30 -218 33
-602 6 -811 -18 -135 -61 -347 -73 -358 -4 -3 -3 73 0 169 10 268 -14 639 -60
915 -15 87 -69 329 -80 360 -9 22 -47 20 -40 -2 11 -35 35 -190 48 -308 26
-239 11 -995 -21 -1053 -4 -8 -11 44 -15 115 -11 199 -27 262 -39 153 -2 -21
-5 -9 -6 30 -2 36 -6 88 -11 115 -6 38 -8 18 -9 -87 0 -85 -5 -138 -11 -138
-6 0 -10 28 -10 64 0 213 -74 674 -162 1006 -22 85 -43 165 -45 177 -4 18 -19
25 -97 43 -108 25 -455 95 -510 103 l-39 6 94 -97 c266 -273 425 -550 553
-964 48 -157 119 -451 114 -475 -2 -8 -20 41 -40 109 -78 266 -183 525 -272
675 -49 81 -130 183 -146 183 -4 0 19 -51 51 -113 70 -136 155 -344 203 -499
39 -126 90 -329 100 -398 6 -41 4 -39 -15 20 -16 48 -23 60 -28 46 -6 -14 -10
-9 -22 25 l-14 44 -3 -55 -4 -55 -33 116 c-136 469 -401 889 -733 1162 -187
152 -458 304 -752 420 -151 60 -375 134 -460 152 -31 7 -33 9 -16 19 76 45
115 109 116 191 0 33 7 62 21 85 22 37 67 79 85 80 5 0 55 -15 110 -34z m3071
-73 c-3 -10 -5 -4 -5 12 0 17 2 24 5 18 2 -7 2 -21 0 -30z m16 -108 c3 -43 2
-60 -3 -45 -8 24 -14 127 -6 119 2 -2 6 -35 9 -74z m97 -464 c0 -3 -16 11 -36
30 -19 18 -38 32 -41 29 -3 -3 -7 4 -9 14 -2 14 10 7 42 -25 24 -24 44 -45 44
-48z m75 -78 c31 -37 37 -47 16 -28 -31 28 -77 85 -69 85 2 0 26 -26 53 -57z
m106 -130 c13 -16 12 -17 -3 -4 -17 13 -22 21 -14 21 2 0 10 -8 17 -17z
m-1054 -185 c-3 -7 -5 -2 -5 12 0 14 2 19 5 13 2 -7 2 -19 0 -25z m10 -55 c-3
-10 -5 -4 -5 12 0 17 2 24 5 18 2 -7 2 -21 0 -30z m10 -70 c-3 -10 -5 -2 -5
17 0 19 2 27 5 18 2 -10 2 -26 0 -35z m10 -85 c-2 -13 -4 -3 -4 22 0 25 2 35
4 23 2 -13 2 -33 0 -45z m-1868 -134 c137 -186 341 -381 523 -497 43 -27 76
-53 73 -57 -8 -12 214 -147 469 -287 97 -53 76 -48 -109 24 -149 59 -311 137
-422 203 -62 37 -65 38 -33 10 70 -61 318 -221 460 -295 131 -69 153 -86 61
-49 -40 17 -44 17 -35 3 4 -8 -1 -9 -17 -4 -24 8 -24 8 -5 -14 11 -11 16 -21
11 -21 -4 0 -112 52 -239 114 -229 114 -381 199 -550 309 -89 59 -102 65 -90
45 4 -7 3 -8 -5 -4 -6 4 -9 11 -7 15 3 4 -36 41 -86 82 -132 108 -408 406
-408 440 0 5 22 9 48 9 30 0 63 8 87 21 179 97 167 99 274 -47z m1878 24 c-2
-18 -4 -6 -4 27 0 33 2 48 4 33 2 -15 2 -42 0 -60z m10 -290 c-1 -46 -3 -11
-3 77 0 88 2 125 3 83 2 -42 2 -114 0 -160z m603 97 c-16 -47 -23 -40 -8 8 6
20 13 35 16 33 2 -3 -1 -21 -8 -41z m-41 -114 c-6 -18 -13 -30 -15 -28 -2 2 1
18 7 36 6 18 13 30 15 28 2 -2 -1 -18 -7 -36z m-28 -68 c-12 -20 -14 -14 -5
12 4 9 9 14 11 11 3 -2 0 -13 -6 -23z m-25 -60 c-8 -15 -15 -25 -16 -21 0 12
23 58 27 54 3 -2 -2 -17 -11 -33z m-86 -183 c-40 -78 -74 -140 -75 -138 -2 2
29 67 68 145 39 78 73 140 75 138 2 -2 -29 -67 -68 -145z m-1654 14 c24 -14
44 -28 44 -30 0 -5 -64 28 -90 45 -31 21 3 10 46 -15z m94 -60 c0 -2 -9 0 -20
6 -11 6 -20 13 -20 16 0 2 9 0 20 -6 11 -6 20 -13 20 -16z m637 -196 c-3 -8
-6 -5 -6 6 -1 11 2 17 5 13 3 -3 4 -12 1 -19z m843 -93 c0 -2 -15 -12 -32 -20
l-33 -16 25 20 c24 20 40 26 40 16z m-453 -37 c-3 -8 -6 -5 -6 6 -1 11 2 17 5
13 3 -3 4 -12 1 -19z"/>
</g>
</svg>
