<svg id="Layer_1" xmlns="http://www.w3.org/2000/svg" viewBox="0 0 703.8 140.9"><style>.st0{fill:#585858}</style><path class="st0" d="M163.2 99.7c-1.9 0-3.2 2.3-4.4 4.1l-10.4 15.7 6-.2 9-14.1s.9-1.2 1.3-1.7c.7-.9 1.7-1.7 2.9-1.7l-4.4-2.1zm-58.3 27.5c3.4 1.9 7 4.2 10.8 5-3.7-1.4-7.2-3.3-10.7-5.3h-1.4c.4 0 .9.1 1.3.3zm-13.5-8.6c1.2.8 2.3 1.7 3.6 2.7l1.7-.1c-.9-.7-1.7-1.3-2.6-1.9v-.1c-1-.8-1.9-1-2.9-.8 0 .1.1.1.2.2zm205.1 5.3l3.5-8.1 4.4 7.8-3.7 8.6zm-5.1 9.8l4.1-9.8-4.5-9.2-4.2 9.4zm23.5-35.1l.5-1.2c-.4-.4-.7-.8-1.1-1.2-.5-.5-1.1-1-1.6-1.5l2.2 3.9zM282 132.7l3.8-8.5-3.8-8-4 8zm-12.3-7.3l2.9 7.3 4.4-8.5-3.3-6.9zm47.2-10.3l4.4 7.8 2.3-7.2-4.3-7.6zm-42.5-14.7l-4 7.8 3.4 7.1 3.9-8zm39.2 23.8l4.6 8.2 2.7-8.3-4.4-7.8zm5.5-18.2l.8-2.2c-1.1-2-2.4-3.9-3.8-5.7l-.6 1.4 3.6 6.5zm4.2 7.2c-.4-2.2-1.1-4.3-1.9-6.3-.3-.7-.6-1.3-.9-2l-.7 2.1 3.5 6.2zm-7 .9l2.4-7-3.7-6.5-2.7 6.5zm-6.3 17.7l2.7-7.5-4.4-7.8-2.9 7zm5.9-16.6l-4.1-7-3 7.2 4.3 7.8zm-11.1 7.3l3-7-4.4-7.7-2.9 6.9zm3.4-8.1l3.1-7.2-4.4-7.6-3 7.1zm-4.9-8.7l3.1-7.1-4.6-8.1-3.1 6.9zm-3.4 8l3-6.9-4.7-8.4-3 6.8zm-30-4.5l-3.8 7.2 3.1 7.8 4-7.9zm9.3-18.1l-4.3 8.3 3.4 6.9 4.3-8.5zm-12.8 10.7l-3.5 6.7 2.8 6.8 3.7-7.2zm-.8 15.7l-4.2 8 3.1 8.2 4.2-8.4zm-3.2-8l-4 7.8 2.6 7.1 4.1-8zm33.6 13.3l3.5-8-4.8-8.5-3.2 7.4zm-21.8-6.5l3.3 6.8 4-7.9-3.3-6.8zm9.4-18.5l3.3 6.7 3.2-6.5-3.5-6.3zm-4.8 9.5l3.2 6.8 4.4-8.6-3.3-6.7zm15.9-3l3-6.9-3.3-5.9-3.2 6.5zm-3.8 8.3l3.3-7.3-3.5-6.3-3.3 6.5zm-4.6 10.5l4.1-9.4-3.5-7.2-4.4 8.7zm35.6.9l1.4 2.5c.4-2.1.6-4.3.6-6.5 0-.7 0-1.4-.1-2.1l-1.9 6.1zm-3.1 9.5l1.3 2.3c.5-.9.9-1.8 1.2-2.7.7-1.7 1.3-3.5 1.7-5.3l-1.5-2.7-2.7 8.4zm-60.9-14.9v1.4c0 2.9.3 5.7 1 8.4l1.5-3-2.5-6.8zM284 87c-1.1.2-2.1.5-3.1.8l-1.1 2.2 3.3 6.7 3-6L284 87zm10.4 2.6l1.5-2.9c-1.1-.2-2.2-.3-3.3-.3l1.8 3.2zm-7.8.2l1.7-3.4c-1.1.1-2.2.2-3.3.4l1.6 3zm.5.9l3.5 6.3 3.2-6.4-2.4-4.3h-2.2l-2.1 4.4zm22.1 1.3c-1.7-1.2-3.5-2.2-5.5-3-.4-.2-.7-.3-1.1-.4l-.4 1 4.6 8.1 2.4-5.7zm-48.3 34.6l-1.6 3.1c.3 1.2.7 2.3 1.2 3.4.6 1.5 1.3 2.9 2.1 4.3l1.3-2.6-3-8.2zm37.3-30.2l3.1-6.8-1.1-1.9c-1.1-.3-2.2-.6-3.3-.8l-1.9 3.7 3.2 5.8zm-37.7 10.5c-1.2 2.8-2 5.8-2.3 8.8l3.8-7.3-1-2.5-.5 1zm51.2-.8l2.7-6.5-3.8-6.6c-.2-.2-.5-.3-.7-.5l-2.6 6.1 4.4 7.5zM265.1 99c-1.4 1.8-2.6 3.7-3.6 5.8l1 2.6 3.4-6.6-.8-1.8zm14.3-10.6l-.6.2.4.5.4-.8zm-.7 1.7l-.6-1.2h-.1c-2.3 1-4.4 2.2-6.3 3.6l2.8 5.8 4.2-8.2zm-13 8.1l.7 1.5 2.5-4.9c-.5.4-.9.9-1.4 1.3l-1.8 2.1zm5.3-5.1l-.2.2-3.8 7.4 3 6.4 4-7.8-3-6.2zm30.1-5.2l.9.3-.4.6zM5 72.4C7 78.6 12.7 93 14.8 99c2.1 5.9 3.5 15.3 3.2 20.9-.3 4.8-.9 17-1.1 21H75v-7H49.6c-8.6 0-9.6-15.8-9.6-21.3V85.9h-9c-.6-2-1.2-4.4-1.8-6.3C26 67.7 27.5 48 27.6 47.3c.1-1.6-.4-1.4-.4-1.4H.9s-1.3-.3-.8 4.8c.6 5 3 15.4 4.9 21.7z"/><path class="st0" d="M109.4 136.9H94.3s-12-3.3-20.1-3.3c-1.6 0-2.5 2.3-2.8 7.3h190.7c-2.5-4-3-7.1-4.1-10l-5.2.6c-.9-.3-1.9-.7-2.6-.9-1.8-.6-2-1-3.7-1.8-1.6-.8-3.3-1.4-4.9-2.3-.6-.3-1.1-.7-1.7-1l16.8-.3c.2.2-.5-8-.5-8l-30.5 1-59.4-24.9c-2.7-.9-5.5-.7-7.9.4-2.5 1.1-4.1 3.2-5.7 5.9L138.8 121l-44.1 1.5c-1.2-1-2.5-2-3.8-2.9v-.1c-1.7-1.3-3.2-1.1-5.3.3-1.1.8-3.1 2.3-4.1 3.1l-52.5.4v2.2l64.6-.1c5.2 4.3 10.6 7.5 15.8 11.5zm48.4-35.6s1-1.4 1.4-2c.9-1.2 2.1-2.3 3.8-2l43.5 21.6-60.4 2 11.7-19.6zm-14.5 24.6h75.2c1 1 2 1.1 2.9 1.8 1.2 1 2.3 2 3.4 3.1 1.1 1 2 2.3 3 3.4l-23.9 2.6h-59.5l6.2-9.9-6 .1-5.8 9.8h-2.1l6.6-10.9zm-8.3 0h.9l-7.1 11h-1l7.2-11zm-7.8 0c-.8 2-1.8 3.7-3.1 5.3-.9 1-2 1.6-3.2 2-1.6.5-3.4.3-4.9 0-5.8-1.1-10.7-4.3-15.9-7.3h27.1zm-41.9-3.1c.5-.5 1.1-.9 1.6-1.4 1.2-.8 1.9-.3 2.7.4.3.2.6.6.9.8l-5.2.2z"/><path class="st0" d="M261.9 140.9h1.1c-4-6-6.4-12.5-6.4-20.1 0-19.3 15.3-34.9 34.2-34.9h.1c18.9 0 34.2 15.6 34.2 34.9 0 7.6-2.4 14.1-6.4 20.1h1c1.4-2 2.7-4.3 3.6-6.6 1.8-4.5 2.9-9.3 2.9-14.2 0-4.9-.9-9.7-2.7-14.1-1.8-4.3-4.3-8.2-7.6-11.5-3.2-3.3-7.1-5.9-11.3-7.8-4.4-1.9-8.7-2.8-13.8-2.8s-9.4 1-13.8 2.8c-4.2 1.8-8 4.4-11.2 7.7-3.2 3.3-5.8 7.2-7.6 11.5-1.8 4.5-2.8 9.2-2.8 14.1s1 9.9 2.8 14.3c1 2.3 2.4 4.6 3.7 6.6z"/><path class="st0" d="M266 140.9l-1.6-4.6-1.2 2.5c.4.7.9 1.2 1.4 2.2l1.4-.1zm2.8 0l3.3-6.8-3-7.5-4.2 8.6 2 5.7zm5.9 0l-2.1-5.5-2.8 5.5zm3.8 0l3-6.9-4-8.7-4.4 8.9 2.6 6.7zm6.1 0l-2.6-5.6-2.5 5.6zm3.9 0l2.4-5.8-4.6-9.7-3.8 8.7 3.1 6.8zm5 0l-2.1-4.5-1.9 4.5zm3.7 0l3-7.3-4.1-8.5-4.2 10 2.7 5.8zm6.5 0l-2.9-6-2.6 6zm3.3 0l2.6-7.7-4.7-8.5-3.7 8.9 3.5 7.3zm6.7 0l-3.5-6.4-2.3 6.4zm53.9-16.8s-.2 0-.2.1l-.1.1s.3 0 .3-.2c0 0 .1 0 0 0zm20.5-.6h-.3.3zm-39.9 6.9c0-.1 0-.2-.1-.2s-.1.1-.1.2c0 0 0 .1.2 0-.1.1 0 0 0 0zm5.2-2.3s0 .1-.1.1c.1 0 .2 0 .1-.1.1-.1 0-.2-.1-.2 0 0 .1.1.1.2zm35.1-4.7h-.2l-.2.1c.1 0 .4-.1.4-.1zm-35.4 5.3c0-.1-.1-.1 0-.1h-.3c-.1 0-.3 0-.3.1-.1-.1.5 0 .6 0-.1.1 0 .1.1.1-.1 0-.1-.1-.1-.1z"/><path class="st0" d="M353.1 128.3c.1 0 .2 0 .2-.1-.1 0-.1-.1-.1-.2s.1-.1.1-.1h-.1c-.1 0-.6.1-.6.2s-.2.2-.2.2v.2h.5c-.1-.1.2-.1.2-.2zm37.5-7.3c0 .1 0 .1 0 0h.2l.1-.1c.1 0 .1-.1.1-.1 0-.1 0-.1-.1-.1s-.3.1-.3.1c.1.1-.7.1 0 .2zm9.1-22v.4c.1 0 .1.1.2.1.2 0 .4-.2.4-.5s-.2-.5-.4-.5h-.1c-.1.1-.1.3-.1.5zm15.6 26.8h-.6.6zm.4-.2l-.2.1s-.3 0-.3.1c.1-.1.6-.1.5-.2.1.1 0 .1 0 0zm-57.6-5.2s.1 0 .3.1c-.1-.1-.3-.1-.3-.1zm72.9 3.8h.2-.2zm-15.2 1.4c-.1 0-.1 0 0 0-.1 0-.1 0 0 0-.1 0-.1 0 0 0-.1 0 0 0 0 0zm16-1.5l-.5.1s-.1 0-.2.1c.2 0 .4 0 .4-.1.1-.1.3-.1.3-.1zm-43.3-.8c0-.1 0-.1-.1-.1s-.1.1-.1.1c.1 0 .1.1.2 0 0 .1 0 0 0 0zm11.1-23.9c-.1-.1-.2-.2-.2-.4s.1-.4.3-.4c0-.1-.1-.1-.2-.1-.3 0-1 .3-1 .6v.6c.7-.1 1-.2 1.1-.3zm46.8 29.2v-.3h-.2c0 .1-.2.1-.2.2 0 0-.3 0-.3.1l.4.1.1.1c.2-.1.2-.2.2-.2zm-.1-.5c0-.1.1-.2.1-.2h.1l-.1-.1c0 .1-.1.2-.1.3s0 .2.1.2h.1c-.1-.1-.2-.1-.2-.2zm5.3 2.2c0-.1 0-.2-.1-.2s-.1.1-.1.2v.1c.1 0 .2 0 .2-.1z"/><path class="st0" d="M446.5 128.2c.1 0 .2-.1.2-.2s0-.1-.1-.1v.1c0 .1 0 .2-.1.2zm-99.9-53.7c-.1 0-.1 0 0 0 0 .1-.3.1-.4.1.2.2.4.3.5.5V75c0-.1 0-.2.1-.4v-.1c-.2-.3-.5-.5-.7-.7.2.3.3.5.5.7zm94.4 45.9c0-.1 0-.1 0 0l-.1-.1h-.1l-.2.1h-.4s.5 0 .5.1c0 0 .2 0 .3.1v-.2zm10.6 10.1c-.1 0-.1 0-.1-.1-.1 0-.2.1-.2.1l-.4.1s-.7 0-.7.1c.1 0 .7-.1.7-.1s.7 0 .7-.1z"/><path class="st0" d="M340.1 99.6v2.7c-.1 0-.1.1-.2.1v.3c.1 0 .1.1.2.1v.3c-.1.1-.2.1-.2.2v.3c.1 0 .1.1.2.1v5.2c-.1 0-.1.1-.2.1 0 .1 0 .2.1.3l.1.1v.9l-.3.3c0 .1 0 .2.1.3 0 0 .1 0 .1.1v.4l-.9 1.5-.1.1h-.3c0 .1.1.3.1.4s.1.4.1.5c.1 9 .1 18 0 27h121.5c-.1-8 0-22.6.1-27.2 0-.1.1-.2.1-.3 0-.1.1-.3.1-.4h-.3l-.1-.1-.9-1.5v-.4s.1 0 .1-.1 0-.2.1-.3l-.3-.3v-.9l.1-.1v-.3c-.1 0-.1-.1-.2-.1v-5.2c.1 0 .1-.1.2-.1v-.3c-.1-.1-.2-.1-.2-.2v-.3c.1 0 .1-.1.2-.1v-.3c-.1-.1-.1-.1-.2-.1v-2.7c.5-1 1.1-2.1 1.6-3.1.2-.2.4-.3.6-.5-.1-.1-.2-.3-.2-.4v-.9l-.9-1.5V93h-.2v.2c-.5 0-1.1 0-1.6-.1 0-.1 0-.2.1-.3h-.2v.2l-.3-8.7c.3-.6.7-1.3 1-1.9.2-.3.3-.5.3-.8 0-.2-.2-.4-.3-.6 0-.3.1-.7-.1-1h-.1s0 .1-.1.1c-.1-.1-.2-.1-.3-.1 0-.1 0-.3-.1-.4h-.1c-.1.1-.1.2-.1.3-.3-.1-.5-.2-.8-.2l-.3-2.7c.2-.6.4-1.1.7-1.7.2-.3.2-.6.1-.8 0-.2 0-.5-.1-.7-.1-.1-.3-.2-.5-.3 0-.1-.1-.2-.1-.3 0 0-.1.1-.1.2-.1-.1-.2-.1-.4-.1 0-.1 0-.3-.1-.2-.1 0-.1.1-.1.2-.2-.1-.5-.1-.8 0 0-.2.1-.4.1-.6s0-.3-.1-.4c0-.1-.1-.1-.2-.1.1-.3.5-.5.3-.9l-.1-.1c.4-.5.6-1.1.3-1.6-.2-.4-.7-.4-1-.7-.2-.2-.2-.5-.2-.7v-.4c0-.3.2-.5.1-.8-.1-.2-.4-.3-.4-.5.3 0 .5-.2.5-.4 0-.3-.2-.5-.6-.5-.3 0-.7.2-.7.5s.2.5.5.5v.1c0 .2-.2.4-.3.6-.1.2 0 .4.2.4.2.2.1.7.1 1 0 .2 0 .4-.1.6s-.2.4-.4.6c-.3.3-.6.6-.4 1 .1.3.3.5.6.7-.1.1-.1.3-.1.4s.1.2.2.2c.1.1.3.1.2.3-.2.2-.3.4-.2.6.1.1.2.2.2.3 0 .1.1.1.1.2-.3.1-.5.2-.8.4 0-.1-.1-.2-.1-.1-.1 0-.1.2-.1.3-.3.2-.6.4-.8.7 0-.1-.4-.1-.5.1h-.3c0 .3.4.6.4.8-.2.3-.2.8.1 1.1h.1c.3.4.6.9.9 1.3.1.9.1 1.7.2 2.6-.1 0-.1.1-.2.1v-.1c0-.1-.1-.3-.2-.2-.1.1-.1.3-.1.4-.2.1-.3.2-.5.3 0-.1-.1-.1-.1-.2h-.1v.3l-.4.4-.1-.1c-.2 0 0 .5 0 .7-.2.3-.3.7-.3 1.1 0 .2.1.4.3.5l.1.1c.4.4.8.8 1.1 1.3.1 2.9.1 5.9.1 8.8-.2 0-.3.1-.5.1V94c-.1 0-.1.1-.2.1 0 .1-.1.3-.1.4-.6.5-1.1 1-1.7 1.5 0-.1 0-.2-.1-.2s-.1.1-.2.1v1.2c-.1 0-.1.1-.2.1 0 .2 0 .3.1.5.7 1.1 1.5 2.2 2.2 3.3v2.4l-.1.1v.3c.1 0 .1.1.2.1v.3l-.2.2v.4c.1 0 .1.1.2.1v5.2c-.1 0-.1 0-.2.1v.4c.1 0 .1.1.2.1v.9c-.1 0-.1.1-.2.1v.4h.2c0 .1 0 .2.1.4-.1 0-.2.1-.2.1v.4h.2c-.3.7-.5 1.4-.8 2.1-.1.1-.2.1-.4.2v.4s.1 0 .1.1v16.4h-.3v-.1c0-.1 0-.2-.1-.2 0 0 .1 0 .1-.1l.1-.1c0-.1 0-.1-.1-.1l-.7-.1s-.2-.1-.9-.1h-.1l.7.1s.4.1.5.1h.3c-.1 0 0 .1 0 .2 0 0 0 .1.1.1h.1c-.1 0-.1.1-.1.2v.1c-.2.1-.4.2-.5.3-.4.2-.8.5-1.2 1-.1-1.8-1.1-3.1-2.5-3.2-.1-.1-.3-.2-.6-.1v-.2c0-.1-.1-.2-.1-.2s.1 0 .1-.1l.1-.1c0-.1 0-.1-.1-.1h-.1s-.1-.1-.2-.1c0 0 0 .1.1.1 0 0-.1 0-.1.1-.1 0-.1.1-.1.2s0 .1.1.1v.1h.1c-.1 0-.1.1-.1.3v.1c-.3.1-.5.2-.6.4-.1 0-.1.1-.2.1-.2-.9-.7-1.6-1.3-2.1v-4c-.7 0-1.3-.1-2-.1.2-.3.2-.7.3-1.1 0-1-.5-1.7-1.2-1.9-.1-.1-.2-.1-.3-.1v-.1s0-.1-.1-.1v-.2h-.1v.2l-.1.1v.1c-.1 0-.2.1-.3.2-.7.3-1.3 1.2-1.3 2.2 0 .4.1.7.2 1l-1.8.9v3.8c0 .1-.1.1-.1.2l-.3-.3c-.1.1-.1.3-.2.4l-.3-.3c-.1.1-.1.2-.2.4-.1-.1-.2-.3-.3-.4l-.2.2c-.1-.1-.2.7-.3-.3-.1 1-.2.2-.2.4l-.3-.3c-.1.1-.2.2-.2.4-.1-.1-.1.6-.2-.4-.1 1-.2.3-.2.4l-.3-.3c-.1.1-.7.3-.8.4 0-.5-.5-1-.5-1.4h.5c-.1-.1.1-.1 0-.2s0-.2-.1-.3c-.1-.2 0-.5-.2-.6 0-.1.1-.2.1-.3 0-.8-.4-1.5-1-1.6-.1 0-.1-.1-.2-.1v-.1s0-.1-.1-.1v-.2s-.5 0-.5-.1h-.6s.5 0 .5.1c0 0 .3 0 .3.1h.2v.2l-.1.1v.1c-.1 0-.2.1-.2.1-.6.3-1 1-1 1.8 0 .2 0 .3.1.5-.1 0-.2-.1-.3-.1v-1.2c0-.6 0-1.3.1-1.9.1-.4.4-.9.2-1.3-.1-.2-.2-.3-.4-.4.2-.9.4-1.8.4-2.8.1-4.2-2-7.6-5-8.3-.3-.2-.7-.4-1.2-.4.1-.1.1-.2.1-.3 0-.2-.1-.4-.3-.5.1 0 .2-.1.2-.1s0-.1-.1-.1c.1-.1.1-.2.1-.3 0-.2-.1-.3-.2-.3.1 0 .1-.1.1-.1s0-.1-.1-.1c.1-.1.2-.2.2-.3 0-.1 0-.2-.1-.3 0-.1 0-.2-.1-.2v-.4c.2 0 .4-.3.4-.5 0-.3-.2-.5-.4-.4-.2 0-.4.2-.4.5 0 .2.1.4.3.4v.4c-.1 0-.1.1-.1.2-.1.1-.1.2-.1.3 0 .1.1.2.2.3-.1 0-.1.1-.1.1s0 .1.1.1c-.1.1-.2.2-.2.4 0 .1.1.2.1.3-.1 0-.1.1-.1.1 0 .1.1.1.2.1-.2.1-.3.3-.3.5 0 .1 0 .2.1.3-.5.1-1 .3-1.3.6-3 1.2-5.2 4.9-5.2 9.1 0 .5 0 .9.1 1.4-.2.3-.3.6-.3 1 0 .5.1.9.3 1.2h-.5l-.8 1.1v.9c-.1 0-.1-.1-.2-.1 0 0-.1-.1-.2-.1v-.1h-1.1 1v.1c-.1 0-.1 0-.2.1-.3.1-.6.4-.7.7-.1 0-.2 0-.3-.1-.3.4-.5.8-.8 1.1 0 .3-.1.8-.1.8h-.7v-1c-.2 0-.3-.1-.5-.2 0-.2 0-.3.1-.5.1-.3.2-.6.2-.9 0-1-.5-1.9-1.2-2.1-.1-.1-.2-.1-.3-.1v-.1c0-.1 0-.1-.1-.1v-.5l.1-.1c0-.1 0-.1-.1-.1s-.1.1-.1.1c0 .1 0 .1.1.1v.5l-.1.1v.1c-.1 0-.2.1-.3.1-.2.1-.3.1-.5.3v-.4c0-1.1-.5-2.1-1.3-2.3-.1-.1-.2-.1-.3-.1v-.1c0-.1 0-.1-.1-.1v-.5c.1 0 .1-.1.1-.1 0-.1 0-.1-.1-.1s-.1.1-.1.1c0 .1 0 .1.1.1 0 0-.2 0-.4.1 0-.1.1-.3.1-.4.1-.3.2-.5.2-.8 0-.2-.2-.4-.3-.6.3-1.1.5-2.3.5-3.6 0-1.6-.2-3.2-.6-4.6-1-3.4-3.3-5.9-6.2-6.8-.3-.3-1-.6-1.7-.7.1-.1.1-.2.1-.4v-.3c-.1-.2-.2-.3-.3-.4.1 0 .2-.1.2-.2 0 0 0-.1-.1-.1.1-.1.2-.2.2-.4s-.1-.4-.3-.4c.1 0 .1-.1.1-.1 0-.1-.1-.1-.1-.1.1-.1.2-.2.2-.4 0-.1-.1-.3-.2-.4h-.7c0-.1-.9-.2-.9-.2s.6.1.6.2h.3c-.1.1 0 .2 0 .4s.2.3.3.4c-.1 0-.1.1-.1.1l.1.1c-.2.1-.8.2-.8.4 0 .1-.4.1-.5.2h.8c0 .1.2.1.2.2-.1 0-.1.1-.1.1 0 .1.1.1.2.1-.2.1-.4.3-.4.6v.2c0 .1.1.1.1.2-.7.1-1.3.3-1.7.7-4.1 1.2-7 5.9-6.8 11.4 0 1.3.2 2.5.5 3.6-.1.2-.3.4-.3.6 0 .3.1.5.2.8.2.4.3.8.3 1.3 0 0-.1 0-.1-.1-.1-.1-.2-.1-.3-.1v-.1c0-.1 0-.1-.1-.1v-.1s0-.1-.1-.1c0 0-.2 0-.2-.1l-.3-.1c-.7 0 .2 0 .2.1l.1.1v.2l-.1.1v.1c-.1 0-.3.1-.3.1-.8.2-1.3 1.2-1.3 2.3v.4c-.1-.1-.3-.2-.5-.3-.1-.1-.2-.1-.3-.1v-.1c0-.1 0-.1-.1-.1v-.1s0-.1-.1-.1c0 0-.3 0-.3-.1 0 0-.4 0-.4-.1 0 0 .3 0 .3.1l.2.1h.2v.2l-.1.1v.1c-.1 0-.2.1-.3.1-.7.2-1.2 1.1-1.2 2.1 0 .3.1.6.2.9 0 .2 0 .3.1.5-.2 0-.3.1-.5.2v1h-.7s-.1-.6-.1-.8c-.3-.4-.5-.7-.8-1.1h-.3c-.1-.4-.4-.6-.7-.7 0 0-.1-.1-.2-.1v-.1h-1 .5c0-.2.1-.4 0-.6 0-.1-.8-1.3-.8-1.3h-.5c.2 0 .3-.6.3-1s-.1-.6-.3-.9c.1-.4.1-.9.1-1.3 0-4.2-2.2-7.9-5.2-9.1-.3-.3-.7-.5-1.3-.6.1-.1.1-.2.1-.3 0-.2-.1-.4-.3-.5.1 0 .2-.1.2-.1s0-.1-.1-.1c.1-.1.1-.2.1-.3 0-.1-.1-.3-.2-.4 0 0 .1 0 .1-.1 0 0 0-.1-.1-.1.1 0 .2-.1.2-.3 0-.1-.1-.2-.1-.3 0-.1 0-.2-.1-.2v-.4c.2 0 .3-.2.3-.4 0-.3-.2-.5-.4-.5s-.4.2-.4.4.2.4.4.5v.4c-.1 0-.1.1-.1.2-.1 0-.1.1-.1.3 0 .1.1.2.2.3-.1 0-.1.1-.1.1s0 .1.1.1c-.1 0-.2.2-.2.3 0 .1.1.2.1.3-.1 0-.1.1-.1.1 0 .1.1.1.2.1-.2.1-.3.2-.3.5 0 .1 0 .2.1.3-.5 0-1 .2-1.2.4-3 .7-5.2 4.1-5 8.3 0 1 .2 1.9.4 2.8-.2.1-.3.2-.4.4-.1.4.1.9.2 1.3.2.6.1 1.3.1 1.9v1.2c-.1.1-.2.1-.3.1 0-.1.1-.3.1-.5 0-.8-.4-1.6-1-1.8-.1-.1-.1-.1-.2-.1v-.1s0-.1-.1-.1v-.4h-.2l.1.1v.2s-.1 0-.1.1v.1c-.1 0-.2 0-.2.1-.6.1-1 .7-1 1.6v.3c-.1.2-.2.4-.2.6 0 .1-.1.2-.2.3s-.2.1-.2.2c.1.5.1 1 .1 1.4-.1-.1-.1-.3-.2-.4-.1.1-.2.7-.3.8-.1-.1-.2.1-.2.1-.1 0-.1-.2-.2-.1-.1-.1-.2-.5-.2-.6v-.1c-.1.1-.2.1-.3.3-.1-.1-.1.6-.2-.4-.1 1-.2.2-.3.3 0-.1-.1-.1-.2-.2-.1.1-.2.2-.3.4-.1-.1-.1-.3-.2-.4l-.3.3c-.1-.1-.1-.3-.2-.4l-.3.3c0-.1-.1-.1-.1-.2v-3.8l-1.8-.9c.1-.3.2-.6.2-1 0-1-.6-1.9-1.3-2.2-.1-.1-.2-.1-.3-.2v-.1c0-.1 0-.1-.1-.1v-.2s-.3 0-.3-.1h-.1l.2.1h.2v.2s-.1 0-.1.1v.1c-.1 0-.2 0-.3.1-.7.1-1.2.9-1.2 1.9 0 .4.1.8.3 1.1-.7 0-1.3.1-2 .1 0 1.3 0 2.7.1 4-.6.4-1 1.2-1.2 2.1-.1 0-.1-.1-.2-.1-.1-.1-.3-.3-.6-.4v-.1c0-.1-.1-.2-.1-.2s.1 0 .1-.1v-.1l.1-.1c0-.1 0-.1-.1-.2l-.1-.1s-.1 0-.2-.1l.1.1c-.1 0-.1.1-.1.1 0 .1 0 .1.1.1 0 0 0 .1.1.1-.1 0-.1.1-.1.2v.2c-.3 0-.5 0-.6.1-1.3.2-2.3 1.5-2.5 3.2-.3-.4-.7-.8-1.2-1-.1-.1-.3-.2-.5-.3v-.1c0-.1-.1-.2-.1-.2h.1l.1-.1c0-.1 0-.1-.1-.2h-.1l-.1.1s0 .1.1.1l.1.1c-.1 0-.1.1-.1.2v.1h-.3v-.8h-.6l-1.2-.1 1.1-.1s.4-.1.5-.1c0-5.1.1-10.1.1-15.2 0 0 .1 0 .2-.1v-.4c-.1-.1-.2-.1-.3-.2-.3-.7-.5-1.4-.8-2.1h.2v-.4c-.1 0-.2-.1-.2-.1 0-.1 0-.2.1-.4h.2v-.4c-.1 0-.1-.1-.2-.1v-.9c.1 0 .1-.1.2-.1v-.4c-.1 0-.1 0-.2-.1v-5.2c.1 0 .1-.1.2-.1v-.4l-.2-.2v-.3c.1 0 .1-.1.2-.1 0-.1 0-.2-.1-.3l-.1-.1v-2.4c.7-1.1 1.5-2.2 2.2-3.3 0-.2 0-.3.1-.5-.1 0-.1-.1-.2-.1v-1.2c-.1 0-.1-.1-.2-.1 0 .1 0 .2-.1.2-.6-.5-1.1-1-1.7-1.5 0-.1-.1-.3-.1-.4-.1 0-.1-.1-.2-.1v.3c-.2 0-.3-.1-.5-.1 0-2.9.1-5.8.1-8.8.4-.4.8-.8 1.1-1.3 0 0 .1 0 .1-.1.1-.1.2-.3.3-.5.1-.4 0-.8-.3-1.1 0-.2.2-.8 0-.7 0 0-.1 0-.1.1-.1-.2-.2-.3-.4-.4v-.3h-.1c-.1 0-.1.1-.1.2-.2-.1-.3-.2-.5-.3 0-.1.1-.3-.1-.4-.1-.1-.2.2-.2.2v.1c-.1 0-.1-.1-.2-.1.1-.9.1-1.7.2-2.6.3-.4.6-.9.8-1.3.3-.2-.3-.7-.5-1.1 0-.3-.4-.6-.4-.8h.1l-.1-.1v-.6l-.1-.1c0-.1.1-.3-.1-.3-.1 0-.1 0-.1.1-.3-.1-.5-.3-.8-.4 0-.1.1-.2.1-.2.1-.1.1-.2.2-.3.2-.2 0-.4-.2-.6-.1-.2.1-.2.2-.3.1-.1.2-.1.2-.2s0-.3-.1-.4c.2-.2.5-.4.5-.7.1-.4-.2-.7-.4-1-.2-.2-.3-.3-.4-.6-.1-.2-.1-.4-.1-.6 0-.3-.1-.8.1-1 .2-.1.3-.2.2-.4-.1-.2-.3-.4-.3-.6v-.1c.3 0 .6-.3.5-.5 0-.3-.4-.5-.7-.5-.3 0-.6.3-.6.5s.3.4.5.4c-.1.2-.4.3-.4.5-.1.3.1.5.1.8v.4c0 .3-.1.5-.2.7-.3.3-.7.4-1 .7-.3.5-.1 1.1.3 1.6l-.1.1c-.2.3.2.6.3.9-.1 0-.1.1-.2.1-.1.1-.1.3-.1.4 0 .2.1.4.1.6h-.8c0-.1-.1-.1-.1-.2-.1-.1-.1.2-.1.2-.1 0-.2.1-.4.1 0-.1-.1-.1-.1-.2-.1.1-.1.2-.1.3-.2.1-.3.2-.5.3-.1.2-.1.5-.1.7-.2.2-.2.5.1.8.2.6.4 1.1.7 1.7l-.3 2.7c-.3 0-.5.1-.8.2 0-.1-.1-.2-.1-.3h-.1c-.1.1-.1.2-.1.4-.1 0-.2.1-.3.1 0-.1 0-.1-.1-.2h-.1c-.2.3-.1.7-.1 1-.2.2-.3.4-.3.6 0 .3.1.6.3.8.3.6.7 1.3 1 1.9-.1 2.9-.2 5.8-.3 8.6v-.2h-.2c0 .1 0 .2.1.3-.5 0-1.1 0-1.6.1v-.2h-.2v.2l-.9 1.5v.9c-.1.1-.2.3-.2.4.2.1.4.3.6.5 1.4.9 1.9 2 2.4 3zm119-19.4v.5c-.1-.1-.2-.1-.2-.1v-.5s.1 0 .2.1zm-.7-.3h.1v.5s-.1 0-.1-.1c-.2-.1-.4-.1-.6-.1v-.5c.1 0 .4.1.6.2zm-.5-6.2c.1.2.1.4.1.6-.1-.1-.3-.2-.5-.3v-.5c.2 0 .3.1.4.2zm-.7-.4v.5c-.1 0-.2-.1-.3-.1v-.5c.1 0 .2 0 .3.1zm-.6-.2v.5c-.1 0-.3-.1-.4-.1-.3-.1-.4-.3-.4-.5.3 0 .6 0 .8.1zm-2.1-7.2c-.2 0-.4-.2-.4-.4s.3-.3.5-.3c.3 0 .4.2.4.4 0 .1-.2.3-.5.3zm.2 7.4c.1.4-.1.6-.3.8-.1.1-.3.1-.4.2 0-.2 0-.4-.1-.6.2-.2.5-.4.8-.4zm-1.7 1.8c0-.2 0-.3-.1-.5v-.1c.2-.3.5-.5.7-.7v.6c-.2.2-.4.4-.6.7zm.8 5.3v.5c-.1 0-.1 0-.2.1 0-.1 0-.3-.1-.4.1-.1.2-.1.3-.2zm-1.5 1.5c0-.1 0-.2-.1-.3.1-.2.2-.3.4-.4 0 .1.1.3.1.4-.1.1-.2.2-.4.3zm1-.8c-.1.1-.3.2-.4.3 0-.1 0-.3-.1-.4.1-.1.3-.2.5-.3 0 .1.1.2 0 .4.1 0 .1 0 0 0zM424 107.4c0-.2.1-.4.3-.4.2 0 .3.1.3.3 0 .2-.1.4-.3.4-.2 0-.3-.1-.3-.3zm-15.6 13.8h.2v.2l-.1.1v.1c-.1 0-.3.1-.3.1s-.1 0-.1.1c0-.2 0-.5.1-.7.1.1.2.1.2.1zm-24.6 4.6h.1v.1c-.1 0-.1 0-.2.1-.1 0-.1 0-.2.1v-.5c.1.2.3.2.3.2zm-8.6-18.5c0-.2.1-.4.3-.3.2 0 .3.2.3.4s-.1.3-.3.3c-.2 0-.3-.2-.3-.4zm-28.1-26l.4.4c0 .1 0 .1-.1.2v.1c-.1-.1-.2-.3-.4-.4 0-.1 0-.2.1-.3zm-.7-.5c.2.1.3.2.5.3 0 .1-.1.3-.1.4-.1-.1-.3-.2-.4-.3h-.1c0-.2 0-.3.1-.4zm-.5-.3c.1 0 .1.1.2.1 0 .1 0 .3-.1.4-.1 0-.1-.1-.2-.1.1-.1.1-.2.1-.4zm-.1-6.8c0 .2-.1.4-.1.6-.1-.1-.3-.1-.4-.2-.2-.2-.3-.4-.3-.7v-.1c.3.2.5.3.8.4zm-1.2-8c0-.2.1-.4.4-.4.2 0 .5.1.5.3 0 .2-.1.4-.4.4-.2 0-.5-.1-.5-.3zm-1.5 7.5c.2-.1.5-.1.8 0 0 .3 0 .5-.4.5-.1 0-.2 0-.4.1v-.6zm-.3.1v.5c-.1 0-.2.1-.3.1v-.5c.1-.1.2-.1.3-.1zm-.7.5v.3c-.2.1-.3.2-.5.3 0-.2 0-.4.1-.6.1-.1.3-.2.4-.3v.3zm-1.3 6.8c-.1 0-.2.1-.2.1v-.5c.1-.1.2-.1.3-.1 0 .2 0 .4-.1.5zm.4-.1V80h.1c.2-.1.4-.1.7-.1v.5c-.2 0-.4.1-.6.1-.1-.1-.2 0-.2 0z"/><path class="st0" d="M348.1 131l-.1-.1s0-.1.1-.1v-.2s-.1 0-.1-.1c-.1 0-.2.1-.2.1h-.1v.4h.4zm35.9-5.3c-.1 0-.1 0 0 0-.1 0-.2 0-.2.1l.2-.1zm-16.7-1.4h.2c-.1.1-.2 0-.2 0zm-8.9-3.9h-.3.3zm9.1 4zm-8.8-4.1h-.1l-.2.1c0-.1.3-.1.3-.1zm39.7-18.3zm42.6 18c-.1 0-.1.1-.1.1v.1c.1 0 .2 0 .1-.2.1.1.1 0 0 0zm-73.5 4.4s.1 0 0 0c.1 0 .1 0 0 0 .1 0 0 0 0 0zm-8.8-4.2c0-.1 0-.1-.1-.1s-.1 0-.1.1h.2zm25.2 5.4c0 .1 0 .1 0 0 .1.1.1.1 0 0 .1 0 .1 0 0 0zm-66.7 15.3c.9-2 1.7-2.6 2.4-3.9l-1.2-2-1.9 5.8.7.1zm-1.6 0l2.2-7.1-4.6-8.3-2.6 7.7 4.2 7.7zM477 91.7v49.2h22v-75h-1V73c-1 1.4-2.2 2.7-3.3 4-.9-1.8-2.7-3.1-4.8-3.1-2.9 0-5.4 2.5-5.4 5.5 0 2 1 3.7 2.5 4.7-2.7 2.1-5.5 3.9-8.4 5.4-2.1.2-3.7.7-3.7 1.2-.1.3 1.1.7 2.1 1zm59 49.2V60.6l1-.7v-17h-6v-3h-2v-2h-1v2h-2v3h-3v-14h-.8s.1-.6.1-.9c0-2.7-1.6-5-3.6-5s-3.6 2.2-3.6 5c0 .3 0 .9.1.9h-.2v34h-6v-5h-4v22h-1v61h32zm22 0v-78l-18 18.5v59.5zm24 0V44.6l-22 22.2v74.1zm28 0v-119h-22v119h22zm-19-117h16v16h-3v-5h-11v5h-2v-16zm25 56.4l-3 4.3v56.2h19v-56l-3-4.1v-3.9h-3.1c1.5-1 2.8-3.5 2.8-5.9 0-3.9-2.7-7.2-5.7-7.3V46.9h-2v16.9c-3 .5-5 3.6-5 7.2 0 2.4 1.2 4.9 2.7 5.9H616v3.4zm33.3 60.6v-1h6.5v1h4.3c.2-17 .3-37.7.3-61 0-34.2-.2-57.6-.7-73.1-.1.1-.1.1-.2.1-.2 0-.5-1.2-.7-2.3s-.5-2.2-.7-2.2c-.1 0-.1.1-.2.3 0 .7 0 2.2-.1 2.2H648v-.1c-2.1-1.7-4.2-3.3-6.3-4.8-.2 1.6-.4 3.2-.5 5.1v-.3h-.1c-.9-.2-1.6-.3-2.2-.4h-.2c-1.7 10.4-3 43.3-3 81.7 0 20.7.5 39.8 1.1 54.8h12.5zm.1-2c0-1 .1-1 .1-2h6.1c0 1 .1 1 .1 2h-6.3zm4.5-56v2h-3.1v-2h3.1zm-3.1-1v-2h3.1v2h-3.1zm3.1-3H651v-1h2.9v1zm-3.1-3v-2h3.2v2h-3.2zm3.2 10v2h-3.2v-2h3.2zm0 4v1h-3.2v-1h3.2zm-3.2-17v-2h3.3v2h-3.3zm0-4v-1h3.4s0 1-.1 1h-3.3zm3.2 24v2h-3.3v-2h3.3zm.1 3v2h-3.4v-2h3.4zm0 4v1h-3.5v-1h3.5zm-3.4-34v-2h3.5c0 1 0 2-.1 2h-3.4zm0-3v-2h3.7c0 1 0 1-.1 2h-3.6zm0-3v-2h3.9s0 1-.1 2h-3.8zm3.5 42v2h-3.6v-2h3.6zm.1 4v1h-3.8v-1h3.8zm.1 3v1h-3.9v-1h3.9zm0 3s0 1 .1 1h-4.1v-1h4zm.2 3c0 1 0 1 .1 2h-4.3v-2h4.2zm0-59h-4v-1h4.1c0 1-.1 1-.1 1zm-4.1-3v-2h4.4c0 1-.1 2-.1 2h-4.3zm0-3v-1h4.6s-.1 0-.1 1h-4.5zm-.1-4v-1h4.9c0 1-.1 1-.1 1h-4.8zm-.1-2c0-1 0-2-.1-3h5.2c0 1-.1 2-.1 3h-5zm0 74h4.4c0 1 0 2 .1 2h-4.5c-.1 0-.1-1 0-2zm4.5 4s0 1 .1 1h-4.8v-1h4.7zm.2 3s0 1 .1 2H650c0-1 0-2 .1-2h4.9zm.1 3c0 1 .1 1 .1 1h-5.3l.1-1h5.1zm.2 4h-5.6 5.6zm.1 2l.1 1h-5.9s0-1 .1-1h5.7zm.2-94h-5.4v-1h5.6c-.1 0-.1 0-.2 1zm.3-3h-5.8c0-1 0-1-.1-2h5.9v2zm.2-3H650c0-1 0-1-.1-2h6.3c0 1-.1 1-.1 2zm.2-3h-6.5v-2h6.6c0 1 0 1-.1 2zm.2-3h-6.8c0-1 0-1-.1-1h7l-.1 1zm.3-4h-7.2l-.1-1h7.4c0 1-.1 1-.1 1zm.2-2h-7.6c0-1-.1-1-.1-2h7.8c0 1 0 1-.1 2zm.3-4h-8.1l-.1-1h8.3l-.1 1zm.2-3H649s-.1-1-.1-2h8.7c0 1 0 2-.1 2zm.2-3h-9c0-1-.1-1-.1-2h9.2c0 1 0 1-.1 2zm.3-5s0 1-.1 2h-9.4c0-1-.1-2-.1-2h9.6zm15.9 13.7l.1.2.1-.1zM663 140.9h20.7c.5-12 .8-23.2.8-35.9 0-35-2.1-67.3-5.2-80.9v-.7h-.1l-4.3 1.5-1-4-10.9 8.2v111.8zm40.6 0c.1-16 .2-36.8.2-59.4 0-34.2-.1-57.5-.4-73 0 .1-.1.1-.1.1-.1 0-.3-1.2-.4-2.3-.1-1.1-.3-2.2-.4-2.2 0 0-.1.3-.1.4v2.3h-6.2v-.2c-1.3-1.7-2.6-3.4-3.9-4.8-.1 1.6-.2 3.2-.3 5.1v-.3h-.1c-.5-.2-1-.3-1.4-.4h-.1c-1.1 10.4-1.9 43.2-1.9 81.6 0 20 .2 38.1.6 53.1h14.5zm-6.7-1s0-1 .1-1h3.8s0 1 .1 1h-4zm2.8-55.5v2h-2v-2h2zm-1.8-1.7V82h1.8v.7h-1.8zm1.8-2.8h-1.8v-1.4h1.8v1.4zm-2-2v-2h2v2h-2zm2 9.8v1.4h-2v-1.4h2zm0 3.2v2h-2v-2h2zm-2-17v-1h2.1v1h-2.1zm0-3v-2h2.1v2h-2.1zm2.1 24v1h-2.1v-1h2.1zm0 3v2h-2.1v-2h2.1zm0 3v1h-2.2v-1h2.2zm-2.1-33v-2h2.2v2h-2.2zm0-3v-2h2.3v2h-2.3zm0-4v-1h2.4v1h-2.4zm2.2 44v1h-2.3v-1h2.3zm0 2v2h-2.4v-2h2.4zm.1 3v2h-2.5v-2h2.5zm0 4v1h-2.6v-1h2.6zm.1 3v1h-2.7v-1h2.7zm0-59h-2.5v-2h2.6c0 1 0 2-.1 2zm-2.5-3v-1h2.7l-.1 1h-2.6zm-.1-4v-1h2.9c0 1 0 1-.1 1h-2.8zm0-2v-2h3.1s0 1-.1 2h-3zm-.1-4v-1h3.3s0 1-.1 1h-3.2zm0 75h2.8v2h-2.9c.1-1 .1-1 .1-2zm2.9 4v1h-3v-1h3zm.1 3v1h-3.2v-1h3.2zm.1 3v2h-3.4v-2h3.4zm.1 3v1h-3.5v-1h3.5zm0 3c0 1 0 1 .1 1H697v-1h3.6zm.2-94h-3.4v-2h3.5c-.1 1-.1 1-.1 2zm.1-3h-3.6v-2h3.7c0 1-.1 1-.1 2zm.2-3h-3.8v-2h4c-.2 0-.2 1-.2 2zm.3-7h-4.3v-1h4.4l-.1 1zm.1-2H697v-2h4.7c-.1 0-.2 1-.2 2zm.2-4h-4.8s0-1-.1-1h4.9v1zm.1-3h-5.1c0-1 0-1-.1-2h5.2c.1 1 0 1 0 2zm.2-3h-5.4c0-1 0-1-.1-2h5.5v2zm.1-3h-5.6c0-1 0-2-.1-2h5.8c-.1 0-.1 1-.1 2zm.2-5v1h-5.9s-.1 0-.1-1h6z"/></svg>